# xmcd CD database file
# Copyright (C) 1993-1998 Ti Kan
# 
# Track frame offsets:
#     150
#     14838
#     29843
# 
# Disc length: 725 seconds
# 
# Revision: 1
# Processed by: cddbd v1.4b41PL1 Copyright (c) Steve Scherf et al.
# Submitted via: DiscPlay 4.0.4
# 
DISCID=2602d303
DTITLE=The Blues Brothers - Think
DYEAR=1900
DGENRE=
TTITLE0=Think
TTITLE1=Everybody Needs Somebody To Love
TTITLE2=Shot Gun Blues
EXTD=
EXTT0=
EXTT1=
EXTT2=
PLAYORDER=
